<?xml version="1.0" standalone="no"?>
<!DOCTYPE svg PUBLIC "-//W3C//DTD SVG 20010904//EN"
 "http://www.w3.org/TR/2001/REC-SVG-20010904/DTD/svg10.dtd">
<svg version="1.0" xmlns="http://www.w3.org/2000/svg"
 width="260.000000pt" height="260.000000pt" viewBox="0 0 260.000000 260.000000"
 preserveAspectRatio="xMidYMid meet">
<metadata>
Created by potrace 1.11, written by Peter Selinger 2001-2013
</metadata>
<g transform="translate(0.000000,260.000000) scale(0.100000,-0.100000)"
fill="#000000" stroke="none">
<path d="M1045 2580 c-259 -53 -476 -170 -665 -360 -258 -259 -380 -553 -380
-919 0 -271 65 -493 207 -711 62 -95 183 -237 225 -265 8 -5 51 -37 95 -71
142 -107 327 -191 516 -231 115 -25 399 -25 514 0 104 22 222 62 295 98 32 16
67 29 78 29 11 0 20 4 20 8 0 11 142 108 152 104 4 -1 8 2 8 8 0 5 4 10 9 10
25 0 204 203 274 310 142 218 207 440 207 711 0 365 -122 661 -380 919 -192
193 -408 309 -673 361 -131 26 -373 25 -502 -1z"/>
</g>
</svg>
